<svg xmlns="http://www.w3.org/2000/svg" xmlns:xlink="http://www.w3.org/1999/xlink" width="1728" zoomAndPan="magnify" viewBox="0 0 1296 1727.999927" height="2304" preserveAspectRatio="xMidYMid meet" version="1.0"><defs><clipPath id="id1"><path d="M 179.140625 300.109375 L 1136.890625 300.109375 L 1136.890625 1428.109375 L 179.140625 1428.109375 Z M 179.140625 300.109375 " clip-rule="nonzero"/></clipPath><clipPath id="id2"><path d="M 179.140625 300.109375 L 984 300.109375 L 984 763 L 179.140625 763 Z M 179.140625 300.109375 " clip-rule="nonzero"/></clipPath><clipPath id="id3"><path d="M 709 747 L 1136.890625 747 L 1136.890625 1428.109375 L 709 1428.109375 Z M 709 747 " clip-rule="nonzero"/></clipPath></defs><g clip-path="url(#id1)"><path stroke-linecap="butt" transform="matrix(0.0640122, 0, 0, -0.0640264, 178.536824, 1427.03448)" fill="none" stroke-linejoin="miter" d="M 12190.092798 9634.929201 C 12430.708526 9760.548746 12671.385279 9886.046271 12812.715745 10152.903914 C 12953.924164 10419.700548 12995.786297 10827.796291 12927.684052 11193.978179 C 12859.703853 11560.221077 12681.881324 11884.48911 12446.39157 12156.593612 C 12211.023864 12428.576093 11917.988934 12648.395044 11734.918382 12915.191678 C 11551.786806 13181.988312 11478.619609 13495.884648 11489.115654 13804.473117 C 11499.489652 14113.183606 11593.709963 14416.586226 11567.46985 14683.38286 C 11541.412808 14950.179494 11394.895343 15180.431151 11196.080724 15248.396266 C 10997.266104 15316.483402 10746.215354 15222.283996 10657.182042 15028.699336 C 10568.331801 14835.114675 10641.498998 14542.205771 10625.815954 14359.114827 C 10610.071887 14175.962873 10505.477578 14102.68989 10385.200225 14081.763467 C 10264.861849 14060.898055 10128.840429 14092.318193 10076.543275 14270.101269 C 10024.185097 14448.006365 10055.612208 14772.396418 10270.109872 15013.019771 C 10484.607535 15253.704134 10882.17575 15410.621798 11201.328746 15358.275237 C 11520.420718 15305.989685 11761.097471 15044.3789 11876.187824 14782.829124 C 11991.278178 14521.279349 11980.782133 14259.729573 11965.099089 14087.010325 C 11949.416045 13914.413097 11928.484979 13830.707408 11996.526201 13710.395731 C 12064.506399 13589.962034 12221.519909 13433.105381 12373.16335 13464.52552 C 12524.928837 13495.884648 12671.385279 13715.581579 12728.930456 14029.477916 C 12786.475632 14343.435263 12755.109545 14751.531005 12561.481924 15149.011012 C 12367.976351 15546.613039 12012.209245 15933.782359 11525.668741 16116.873303 C 11039.128237 16299.964247 10421.814336 16279.098834 10034.681142 16080.328326 C 9647.547948 15881.496808 9490.595461 15504.821204 9532.457594 15117.712893 C 9574.258703 14730.482563 9814.935456 14332.880537 10018.998098 13961.5128 C 10222.999716 13589.962034 10390.387224 13244.828589 10338.09007 13030.317506 C 10285.792916 12815.806424 10013.689052 12732.100734 9778.321345 12805.312708 C 9542.892616 12878.524681 9344.077996 13108.715328 9129.580333 13365.079256 C 8915.082669 13621.382173 8684.901962 13903.919381 8559.376587 14202.075144 C 8433.790188 14500.291916 8412.859121 14814.188253 8548.880542 15023.513487 C 8684.901962 15232.716702 8977.875869 15337.409824 9155.759422 15253.704134 C 9333.642975 15169.998445 9396.37515 14897.893943 9506.278505 14651.962721 C 9616.120836 14406.21453 9773.073323 14186.395579 10102.722364 14107.997758 C 10432.310381 14029.477916 10934.472905 14092.318193 11374.0253 13951.019084 C 11813.394625 13809.780985 12190.092798 13464.52552 12383.720418 13134.888609 C 12577.225992 12805.312708 12587.661013 12491.416371 12519.680815 12146.099895 C 12451.700616 11800.78342 12305.244175 11424.229836 12247.576951 11361.389558 C 12190.092798 11298.610291 12221.519909 11549.66635 12184.905799 11785.103856 C 12148.169641 12020.602371 12043.575332 12240.299301 11776.780515 12433.883962 C 11509.985697 12627.407612 11080.99037 12794.757981 10667.678087 12820.992272 C 10254.365804 12847.104542 9856.797589 12732.100734 9678.914036 12580.307909 C 9501.030483 12428.576093 9542.892616 12240.299301 9684.162058 12214.065011 C 9825.431501 12188.01375 10066.108253 12324.004991 10468.924491 12318.758133 C 10871.740729 12313.511275 11436.696453 12167.026318 11755.910472 11826.9567 C 12075.002444 11486.887083 12148.169641 10953.293816 12106.429555 10545.198073 C 12064.506399 10137.22435 11907.614936 9854.687142 11724.48336 9729.128607 C 11541.412808 9603.570072 11332.102144 9634.929201 11269.308944 9818.081155 C 11206.576769 10001.172099 11290.301034 10335.994858 11190.893725 10613.285208 C 11091.486415 10890.514548 10809.008553 11110.272489 10463.066233 11209.230673 C 10117.184937 11308.127848 9707.900206 11286.286275 9404.491278 11343.818685 C 9101.021326 11401.412104 8903.427177 11538.318495 8720.966861 11826.468621 C 8538.384497 12114.679757 8370.996989 12554.195638 8130.38126 12815.806424 C 7889.704507 13077.295189 7575.799534 13161.000879 7455.522182 13286.559414 C 7335.183805 13412.178959 7408.412026 13579.590338 7607.226646 13673.667724 C 7805.980242 13767.86713 8130.38126 13788.793553 8470.465322 13611.010477 C 8810.48836 13433.105381 9166.255467 13056.429777 9377.701954 12580.918008 C 9589.209465 12105.46725 9656.518405 11531.180327 9850.085002 11081.292749 C 10043.590575 10631.405172 10363.536877 10305.794919 10753.599199 10038.388186 C 11143.783569 9770.981452 11604.083961 9561.717228 12080.189443 9629.743353 C 12556.294925 9697.708469 13048.083451 10043.024944 13320.126292 10356.921281 C 13592.230155 10670.817618 13644.52731 10953.293816 13628.783242 11188.731321 C 13613.100198 11424.229836 13529.375933 11612.506628 13581.673087 11889.796978 C 13633.970241 12167.026318 13822.288816 12533.269216 14042.095525 12737.286582 C 14261.780188 12941.303948 14512.891961 12983.217803 14680.279469 12946.489797 C 14847.728001 12909.88381 14931.391243 12794.757981 14941.887288 12726.792866 C 14952.383333 12658.82775 14889.590134 12637.901328 14743.133692 12501.910087 C 14596.616227 12365.796826 14366.374496 12114.679757 14277.524255 11743.312021 C 14188.61299 11371.822265 14240.910145 10880.081842 13947.936238 10351.735433 C 13654.901308 9823.267003 13016.717363 9258.253597 12430.76955 8954.850977 C 11844.760713 8651.387346 11311.232101 8609.595511 10885.104879 8874.683865 C 10458.977658 9139.77222 10140.495921 9711.862783 9999.592619 9905.264414 C 9858.689318 10098.727054 9895.547522 9913.500761 9905.433332 9588.256568 C 9915.380165 9263.012375 9898.476651 8797.811293 9750.433598 8366.409739 C 9602.451568 7935.008184 9323.33 7537.467168 9065.322569 7204.779758 C 8807.376161 6872.092348 8570.482867 6604.197534 8305.457731 6404.023797 C 8040.432595 6203.850059 7747.214594 6071.336387 7683.750136 6024.785773 C 7620.346702 5978.29617 7786.635787 6017.769626 7945.96819 6144.67038 C 8105.300594 6271.510124 8257.55427 6485.777167 8390.036326 6841.038269 C 8522.518382 7196.299371 8635.350866 7692.554532 8879.200841 8108.398542 C 9123.11184 8524.303562 9498.101354 8859.858441 9685.626623 9157.282083 C 9873.151891 9454.766736 9873.151891 9714.120153 9858.994435 9952.425127 C 9844.898003 10190.608081 9816.705138 10407.742592 9716.626569 10599.496953 C 9616.548001 10791.190304 9444.522706 10957.503504 9225.692372 10965.678841 C 9006.923063 10973.793168 8741.287692 10823.708622 8512.876666 10719.32055 C 8284.526665 10614.993488 8093.401008 10556.484919 7973.855938 10572.286503 C 7854.310867 10588.210107 7806.407406 10678.382855 7824.714461 10732.010625 C 7843.08254 10785.638396 7927.661135 10802.47715 8129.221813 10899.788065 C 8330.843514 10996.97696 8649.447298 11174.699026 8942.665299 11239.491622 C 9235.8833 11304.406239 9503.776541 11256.391386 9630.644433 11145.109186 C 9757.512326 11033.704967 9743.415893 10858.91138 9660.240839 10755.987547 C 9577.065785 10653.002704 9424.812109 10622.009635 9273.961975 10641.776868 C 9123.11184 10661.483091 8973.665246 10732.010625 8780.525813 10727.800937 C 8587.386381 10723.530238 8350.55411 10644.644337 8191.221707 10550.078871 C 8031.950326 10455.696435 7950.239837 10345.695445 7958.661082 10325.989222 C 7967.082327 10306.221989 8065.818378 10376.688514 8192.686271 10430.316284 C 8319.554163 10483.883045 8474.614921 10520.489032 8621.254433 10530.433658 C 8767.893945 10540.317275 8905.990165 10523.295491 9028.647435 10520.489032 C 9151.304705 10517.682573 9258.462001 10529.030429 9279.637162 10498.03736 C 9300.751299 10466.983281 9235.8833 10393.588278 9149.901164 10325.989222 C 9063.919028 10258.268146 8956.761732 10196.282009 8790.411623 10175.111546 C 8624.061515 10154.002094 8398.518595 10173.708317 8212.396867 10206.165625 C 8026.336163 10238.561923 7879.696651 10283.709307 7772.539354 10331.60214 C 7665.443081 10379.616993 7597.768 10430.316284 7586.47865 10486.689504 C 7575.189299 10543.123734 7620.346702 10605.109871 7621.750243 10538.914045 C 7623.153784 10472.596199 7580.864486 10277.974369 7559.689326 10029.907799 C 7538.575189 9781.780218 7538.575189 9480.085877 7535.707083 9229.151838 C 7532.900002 8978.217798 7527.285838 8778.04406 7468.093026 8644.127159 C 7408.839191 8510.210257 7296.067731 8442.550191 7193.121057 8445.35665 C 7090.235407 8448.163109 6997.174543 8521.497103 6971.849783 8607.460162 C 6946.464 8693.484231 6988.753297 8792.198375 7066.314188 8859.858441 C 7143.814055 8927.518506 7256.585515 8964.124493 7377.839244 8962.721264 C 7499.092973 8961.318034 7628.767947 8921.844578 7721.828811 8834.41728 C 7814.889675 8747.050991 7871.275405 8611.66985 7845.889622 8503.194109 C 7820.503839 8394.596349 7713.346542 8312.842978 7692.171382 8310.036519 C 7671.057245 8307.23006 7735.925244 8383.309503 7720.42527 8425.650427 C 7704.864273 8467.930342 7609.057351 8476.349719 7535.707083 8436.876263 C 7462.417839 8397.402808 7411.646273 8310.036519 7342.628674 8262.082676 C 7273.489029 8214.189844 7186.103352 8205.709457 7111.410567 8242.376454 C 7036.656759 8279.04345 6974.656865 8360.735811 6902.771162 8398.867047 C 6830.885458 8436.876263 6749.113945 8431.263345 6746.24584 8394.596349 C 6743.438758 8357.929352 6819.596107 8290.330296 6799.824488 8277.640221 C 6780.113892 8264.950145 6664.474326 8307.23006 6592.588623 8391.78989 C 6520.702919 8476.349719 6492.510054 8603.250473 6515.088756 8699.097149 C 6537.606434 8795.004834 6610.895678 8859.858441 6667.342432 8873.951746 C 6723.728162 8888.045051 6763.210377 8851.378054 6788.535137 8769.624683 C 6813.92092 8687.810303 6825.210271 8560.970559 6867.499568 8452.433808 C 6909.788866 8343.836047 6983.07811 8253.663299 7001.446189 8123.956086 C 7019.753244 7994.187863 6983.07811 7825.068204 7018.349703 7729.221529 C 7053.621296 7633.313843 7160.717569 7610.801161 7256.585515 7634.778083 C 7352.453461 7658.693994 7437.093079 7729.221529 7548.399975 7727.818299 C 7659.828918 7726.41507 7797.925137 7653.081076 7899.46827 7584.017781 C 8000.950379 7514.893476 8065.818378 7450.100879 8139.107623 7440.217263 C 8212.396867 7430.333646 8294.229404 7475.48103 8281.536512 7455.713797 C 8268.782597 7436.007574 8161.686324 7351.386735 8013.643271 7340.099889 C 7865.600218 7328.813043 7676.671408 7390.860191 7534.303542 7389.456961 C 7391.935676 7388.053732 7296.067731 7323.200125 7188.910434 7327.409814 C 7081.814161 7331.619502 6963.367514 7404.953496 6842.113785 7412.030653 C 6720.860056 7419.046801 6596.799246 7359.867122 6457.238461 7356.999653 C 6317.738701 7354.193194 6162.61692 7407.759955 6083.652488 7445.830181 C 6004.74908 7483.900407 6001.941999 7506.474099 6054.056082 7506.474099 C 6106.23119 7506.474099 6213.388486 7483.900407 6338.852838 7516.296705 C 6464.317189 7548.754014 6608.088596 7636.181312 6702.553001 7613.60762 C 6797.017406 7591.033928 6842.113785 7458.520256 6932.367567 7376.766886 C 7022.560326 7295.013515 7157.910487 7263.959436 7194.585621 7194.896141 C 7231.199732 7125.832846 7169.199838 7018.699325 7060.639001 6984.838787 C 6952.078164 6950.978249 6797.017406 6990.451705 6685.649487 7052.498853 C 6574.281568 7114.546 6506.606487 7199.16684 6560.185135 7177.996377 C 6613.763783 7156.825915 6788.535137 7029.986171 7000.042648 6973.612951 C 7211.489136 6917.178722 7459.610757 6931.272026 7635.846675 6993.319174 C 7812.02157 7055.366322 7916.371784 7165.306302 7943.161109 7182.206066 C 7969.950433 7199.16684 7919.178866 7123.026387 7893.793083 7039.808777 C 7868.468323 6956.652177 7868.468323 6866.41842 7768.328731 6828.348194 C 7668.250163 6790.277967 7468.032003 6804.432282 7339.760569 6756.47844 C 7211.489136 6708.585607 7155.103406 6598.584616 7107.199945 6458.993787 C 7059.23546 6319.463967 7019.753244 6150.283298 7046.542568 6045.956236 C 7073.331892 5941.629173 7166.392756 5902.155718 7088.831866 5907.768636 C 7011.270975 5913.442564 6763.210377 5964.202865 6527.781647 6074.142846 C 6292.291894 6184.082826 6069.556056 6353.263495 5832.723785 6607.065003 C 5595.891514 6860.744492 5344.962811 7199.16684 5136.323405 7541.676856 C 4927.683999 7884.247883 4761.333891 8231.089608 4645.694326 8713.190454 C 4530.115784 9195.35231 4465.247785 9812.834297 4485.019405 10235.816474 C 4504.730001 10658.737642 4609.080215 10887.097989 4751.448081 11029.495278 C 4893.876971 11171.770547 5074.262488 11228.204776 5282.901894 11223.995088 C 5491.5413 11219.785399 5728.434594 11154.931793 5938.477541 11068.907724 C 6148.520487 10982.883655 6331.835133 10875.811144 6485.49235 10819.437924 C 6639.088543 10763.003694 6763.210377 10757.390776 6797.017406 10713.707632 C 6830.885458 10670.024488 6774.438705 10588.210107 6678.631782 10550.078871 C 6582.763837 10512.130665 6447.413675 10517.682573 6269.774216 10603.706642 C 6092.134757 10689.669701 5872.206001 10855.982901 5650.873703 10970.19358 C 5429.541406 11084.404258 5206.805568 11146.512416 5050.341269 11128.087403 C 4893.876971 11109.784409 4803.623189 11011.070265 4802.219648 10888.501219 C 4800.816107 10765.810153 4888.201784 10619.203176 4975.587461 10545.869183 C 5063.034161 10472.596199 5150.419838 10472.596199 5261.787757 10499.379579 C 5373.155676 10526.22397 5508.505837 10579.66871 5652.277244 10589.613337 C 5796.048651 10599.496953 5948.36335 10565.575405 6066.809998 10512.130665 C 6185.195621 10458.502894 6269.774216 10385.168901 6323.352864 10321.718523 C 6376.870489 10258.268146 6399.449191 10204.701386 6393.835027 10235.816474 C 6388.15984 10266.809543 6354.352811 10382.423452 6292.291894 10472.596199 C 6230.292 10562.829956 6140.038218 10627.683563 6016.038431 10671.427717 C 5891.97762 10715.110862 5734.048757 10737.623543 5583.198623 10713.707632 C 5432.409511 10689.669701 5288.577081 10619.203176 5194.112676 10588.210107 C 5099.648271 10557.217038 5054.551892 10565.575405 5075.727052 10531.775878 C 5096.841189 10498.03736 5184.28789 10421.835897 5335.077001 10354.175832 C 5485.927136 10286.515766 5700.241729 10227.336087 5886.302433 10201.894927 C 6072.363138 10176.514776 6230.292 10184.995163 6312.063514 10196.282009 C 6393.835027 10207.629865 6399.449191 10221.72317 6357.159893 10203.298156 C 6314.870595 10184.995163 6224.677837 10134.295871 6109.038272 10106.109261 C 5993.45973 10077.861641 5852.495405 10072.187713 5696.031106 10103.180782 C 5539.505784 10134.173851 5367.541512 10201.894927 5220.902 10278.096389 C 5074.262488 10354.175832 4953.069783 10438.796671 4814.912539 10388.03637 C 4676.755296 10337.276068 4521.694539 10151.195635 4525.905161 9880.494363 C 4530.115784 9609.8541 4693.65881 9254.531988 4943.183973 9012.078336 C 5192.709135 8769.624683 5528.216434 8639.91747 5703.048811 8171.848919 C 5877.881188 7703.780368 5891.97762 6897.411489 5766.513269 6446.303711 C 5640.987894 5995.195934 5375.962758 5899.349259 5110.937622 5897.946029 C 4845.912486 5896.48179 4580.88735 5989.583016 4344.05508 6126.306377 C 4107.222809 6263.029738 3898.52238 6443.497252 3777.329674 6611.274692 C 3656.075945 6779.052131 3622.268917 6934.139495 3627.88308 6953.845718 C 3633.558267 6973.612951 3678.654647 6857.999043 3629.286621 6753.671981 C 3579.918596 6649.283908 3436.147189 6556.304702 3340.340266 6470.280633 C 3244.411297 6384.256564 3196.507836 6305.370662 3083.675353 6278.587282 C 2970.964916 6251.803902 2793.264434 6277.184052 2698.861052 6326.480115 C 2604.396647 6375.837187 2593.107297 6449.11017 2560.703809 6529.521321 C 2528.239298 6609.871462 2474.66065 6697.237751 2474.66065 6790.277967 C 2474.66065 6883.379194 2528.239298 6982.032328 2577.607323 7034.195859 C 2626.975349 7086.359391 2672.071728 7091.972308 2705.93978 7165.306302 C 2739.746809 7238.579286 2762.264487 7379.573345 2896.211107 7457.117027 C 3030.157728 7534.660709 3275.472268 7548.754014 3519.322243 7469.807102 C 3763.233242 7390.860191 4005.679676 7218.873063 4231.28362 7046.885935 C 4456.82654 6874.837797 4665.465945 6702.911679 4854.394755 6661.973984 C 5043.262541 6621.097298 5212.419731 6711.331056 5260.384216 6850.921885 C 5308.287677 6990.451705 5234.998433 7179.399607 5205.402027 7185.012525 C 5175.744597 7190.686453 5189.902053 7013.025397 5048.937728 6941.155643 C 4907.973403 6869.224879 4611.887297 6903.085417 4362.362135 7083.552932 C 4112.836972 7263.959436 3909.81173 7591.033928 3789.961542 8159.158844 C 3670.172378 8727.283759 3633.497244 9536.520107 3712.461675 10039.791415 C 3791.426107 10543.123734 3985.96908 10740.368992 4163.608539 10851.834222 C 4341.247998 10963.177432 4501.922919 10988.618593 4688.532835 11124.609834 C 4875.142751 11260.479055 5087.626638 11507.081386 5225.23467 11792.608083 C 5362.842702 12078.07377 5425.635901 12402.524833 5362.842702 12671.883886 C 5300.049502 12941.303948 5111.730928 13155.815031 4912.916308 13192.360008 C 4714.162712 13229.088015 4504.852048 13087.788906 4389.761694 12758.213005 C 4274.67134 12428.576093 4253.740274 11910.7234 4073.293733 11510.497945 C 3892.786169 11110.272489 3552.702107 10827.796291 3170.816935 10715.293891 C 2788.931764 10602.791492 2365.123436 10660.262891 1988.486287 10801.62301 C 1611.788114 10942.800099 1282.200097 11167.804898 1088.6335 11479.077806 C 895.066903 11790.411724 837.521726 12188.01375 853.20477 12459.996232 C 868.887814 12731.978714 957.860103 12878.524681 1114.812589 12894.204245 C 1271.765076 12909.88381 1496.697761 12794.757981 1690.325381 12575.122061 C 1883.830955 12355.42513 2046.031464 12030.974067 2284.084205 11881.926691 C 2522.075923 11732.757294 2835.980896 11758.991585 3079.281659 11915.909248 C 3322.521399 12072.887922 3495.15693 12360.610978 3670.416472 12381.5374 C 3845.676014 12402.524833 4023.559567 12156.593612 4049.738656 11855.81442 C 4075.917744 11554.913209 3950.331346 11199.225037 3725.337637 10945.484538 C 3500.404952 10691.68303 3176.064958 10540.012225 2820.297852 10474.609528 C 2464.530746 10409.206832 2077.397552 10430.133254 1760.929591 10547.882512 C 1444.400606 10665.570759 1198.475832 10880.081842 1049.395379 11036.999505 C 900.314926 11193.978179 848.017771 11293.424443 727.679395 11353.519271 C 607.341019 11413.73612 419.022445 11434.601532 275.128991 11348.272413 C 131.29656 11262.004304 31.889251 11068.419644 29.265239 10919.311258 C 26.641228 10770.202872 120.800515 10665.570759 167.849647 10670.817618 C 214.959803 10676.003466 214.959803 10791.068284 254.197924 10887.891119 C 293.436046 10984.713954 371.912289 11063.172786 473.94361 11063.172786 C 575.913908 11063.172786 701.500306 10984.713954 811.342638 10785.882436 C 921.245992 10587.111928 1015.405279 10268.029743 1266.517053 9956.695825 C 1517.628827 9645.422917 1925.693088 9341.959287 2341.629382 9318.409435 C 2757.504652 9294.859584 3181.31298 9551.223511 3369.631555 9642.799488 C 3557.950129 9734.375465 3510.900997 9661.102482 3348.700488 9527.73467 C 3186.561003 9394.305848 2909.209116 9200.721188 2728.762576 9148.435637 C 2548.255011 9096.089076 2464.530746 9185.041623 2545.631 9088.279798 C 2626.731255 8991.456963 2872.595006 8708.980765 2893.281978 8316.808627 C 2913.907927 7924.697498 2709.296074 7422.890429 2486.9874 7048.838254 C 2264.617703 6674.786079 2024.551186 6428.427788 1799.862595 6420.374471 C 1575.174004 6412.260144 1365.924363 6642.511801 1287.44812 6917.117712 C 1208.971876 7191.784632 1261.269031 7510.927827 1321.438219 7628.616075 C 1381.607407 7746.304322 1449.648629 7662.598633 1504.569794 7534.477679 C 1559.49096 7406.295715 1601.353093 7233.637477 1606.540092 7223.204771 C 1611.788114 7212.711055 1580.422027 7364.44287 1572.549993 7500.434111 C 1564.738983 7636.486362 1580.422027 7756.798039 1478.451729 7811.768029 C 1376.359385 7866.677009 1156.674722 7856.183293 1002.346247 7809.1446 C 848.017771 7762.044897 759.045483 7678.339207 756.421472 7599.880375 C 753.797461 7521.360534 837.521726 7448.14856 887.255893 7322.590025 C 936.929036 7197.031491 952.61208 7019.126395 976.167158 7047.923104 C 999.722236 7076.658804 1031.088323 7312.096309 999.722236 7463.828124 C 968.295124 7615.55994 874.135837 7683.586065 793.096606 7631.239504 C 711.996351 7578.953953 643.955129 7406.295715 518.368731 7325.213454 C 392.843356 7244.131194 209.71178 7254.5639 201.90077 7162.987923 C 194.028736 7071.472956 361.477268 6877.888296 552.419853 6694.797352 C 743.362439 6511.706408 957.860103 6339.04817 1106.940555 6320.745177 C 1256.021008 6302.442183 1339.745274 6438.433424 1337.121263 6553.559253 C 1334.558275 6668.624071 1245.585987 6762.823477 1216.782887 6959.031566 C 1188.04081 7155.178646 1219.406898 7453.334408 1172.357766 7610.313082 C 1125.308634 7767.291755 999.722236 7782.971319 853.20477 7790.780596 C 706.748329 7798.650884 539.299797 7798.650884 429.457466 7720.192052 C 319.615135 7641.67221 267.31798 7484.754547 196.652747 7351.325725 C 126.048538 7217.957913 37.07625 7108.078943 118.176504 6794.182606 C 199.276759 6480.286269 450.388532 5962.372566 970.919135 5661.532364 C 1491.449738 5360.753173 2281.460194 5277.047483 2701.790181 5429.145358 C 3122.181192 5581.243233 3173.013782 5969.144674 3118.092616 6076.400215 C 3063.110427 6183.655756 2902.435506 6010.204389 2911.100846 5711.621556 C 2919.705161 5413.038724 3097.588715 4989.324427 3529.147029 4602.155107 C 3960.766367 4215.046796 4646.12149 3864.483463 5012.323618 3367.496182 C 5378.525745 2870.508901 5425.635901 2226.975653 5266.059403 1962.802449 C 5106.543929 1698.629244 4740.280778 1813.694063 4489.169004 2059.625284 C 4238.05723 2305.495495 4102.03581 2682.171099 3992.132455 3024.803136 C 3882.290124 3367.496182 3798.626882 3676.145661 3576.257184 3880.224037 C 3353.948511 4084.241403 2992.933382 4183.626658 2684.276432 4178.3798 C 2375.619481 4173.132941 2119.259685 4063.253971 1936.128109 3880.224037 C 1753.057557 3697.072083 1643.215226 3440.769166 1664.085269 3184.344228 C 1685.016335 2928.041311 1836.720799 2671.677383 1991.110298 2512.136291 C 2145.438774 2352.534188 2302.39126 2289.815931 2433.164658 2284.569073 C 2563.938055 2279.322215 2668.593388 2331.607766 2768.000697 2334.231195 C 2867.346984 2336.854624 2961.567294 2289.815931 3074.033637 2297.625208 C 3186.561003 2305.495495 3317.273377 2368.274762 3343.452466 2470.283446 C 3369.631555 2572.292129 3291.155311 2713.530228 3257.165212 2857.452766 C 3223.11409 3001.253284 3233.610135 3147.799251 3283.283278 3184.405238 C 3333.017444 3221.011225 3421.928709 3147.799251 3419.304698 3071.963849 C 3416.680687 2996.067436 3322.521399 2917.547594 3189.123991 2928.041311 C 3055.726582 2938.535027 2883.091051 3037.920281 2720.890542 3037.920281 C 2558.751056 3037.920281 2406.985569 2938.535027 2276.212171 2873.07132 C 2145.438774 2807.729634 2035.596442 2776.309495 1975.427254 2828.656056 C 1915.258066 2880.941608 1904.762021 3016.993858 1938.75212 3037.920281 C 1972.803243 3058.846703 2051.218463 2964.647297 2072.210553 2815.538911 C 2093.141619 2666.491535 2056.466485 2462.413159 2127.131718 2302.872066 C 2197.735928 2143.330974 2375.619481 2028.205145 2584.869122 1996.846016 C 2794.118763 1965.425878 3034.795515 2017.711429 3183.936992 2164.257396 C 3333.017444 2310.681343 3390.562621 2551.365706 3432.363731 2517.383149 C 3474.225864 2483.339581 3500.404952 2174.690102 3599.812262 1873.849901 C 3699.219572 1573.070709 3871.855102 1280.100795 4300.850429 1023.736867 C 4729.845756 767.37294 5415.139856 547.676009 5904.304371 681.043821 C 6393.468886 814.472643 6686.442793 1301.027217 6618.462594 1939.252597 C 6550.421372 2577.538987 6121.426046 3367.496182 5619.202498 3903.712879 C 5116.97895 4439.929575 4541.527182 4722.466783 4188.384087 5015.436698 C 3835.240992 5308.406612 3704.406571 5611.809232 3648.325958 5903.314907 C 3592.184323 6194.698562 3610.735472 6474.185271 3724.605355 6518.234475 C 3838.475238 6562.22267 4047.663856 6370.834369 4250.261933 6105.562984 C 4452.860011 5840.23059 4648.928572 5501.076122 5047.717258 5182.421007 C 5446.566967 4863.704882 6048.197825 4565.54912 6464.073095 4162.700235 C 6880.00939 3759.85135 7110.25112 3252.431364 7102.379087 2841.712192 C 7094.507053 2431.05403 6848.643302 2117.157693 6846.01929 2122.343541 C 6843.395279 2127.590399 7084.072032 2451.980452 7196.538374 2831.279485 C 7309.004716 3210.517509 7293.321672 3644.786532 7191.290351 3992.665427 C 7089.25903 4340.544321 6900.940456 4602.155107 6717.869904 4855.895605 C 6534.738328 5109.575094 6356.854775 5355.506315 6199.170007 5619.25245 C 6041.485238 5883.059595 5903.999253 6164.681653 5766.513269 6446.303711 " stroke="#000000" stroke-width="47.588001" stroke-opacity="1" stroke-miterlimit="22.926001"/></g><g clip-path="url(#id2)"><path stroke-linecap="butt" transform="matrix(0.0690255, 0, 0, -0.0690408, 178.536824, 1427.03448)" fill="none" stroke-linejoin="miter" d="M 3660.250593 11306.309685 C 3462.40708 11476.611996 3264.563568 11646.801149 3069.549626 11583.885478 C 2874.592275 11520.913228 2682.464493 11224.779576 2500.975894 11111.112685 C 2319.430703 10997.502372 2148.524694 11066.302243 1994.709286 11188.512539 C 1840.893878 11310.722835 1704.225663 11486.286978 1822.67145 11696.986581 C 1941.117236 11907.629605 2314.677026 12153.464668 2731.925371 12181.810667 C 3149.173717 12210.100087 3610.054026 12020.787286 3921.419874 11993.403127 C 4232.672539 11965.905811 4394.410742 12100.110821 4440.476137 12345.097201 C 4486.598123 12590.083582 4417.0473 12945.907911 4193.058564 13230.49948 C 3969.069828 13515.204206 3590.643178 13728.563015 3338.358746 13747.969557 C 3086.074313 13767.3761 2959.932096 13592.830376 2945.388108 13418.114916 C 2930.84412 13243.512613 3027.841769 13068.797153 3262.979009 12853.288349 C 3498.059658 12637.779544 3871.336491 12381.420817 4167.252888 12303.794647 C 4463.225877 12226.168478 4681.895022 12327.274866 4822.581227 12631.386135 C 4963.21084 12935.497404 5025.857513 13442.613554 4802.661056 13787.008957 C 4579.521191 14131.517519 4070.538197 14313.361913 3709.315331 14258.706753 C 3348.092465 14204.108171 3134.573137 13913.010036 2993.943524 13558.769914 C 2853.200728 13204.586371 2785.291055 12787.430578 2520.103785 12494.97455 C 2254.916514 12202.518523 1792.451645 12034.818839 1433.435844 12083.306905 C 1074.420043 12131.794972 818.796718 12396.583946 734.701907 12674.499212 C 650.550504 12952.414478 737.927616 13243.512613 771.882452 13520.013408 C 805.780697 13796.62736 786.42644 14058.530814 742.737885 14097.28732 C 699.049329 14136.213562 631.139656 13951.82312 548.685996 13825.708884 C 466.232335 13699.481491 369.178095 13631.643461 306.078691 13646.184223 C 243.035879 13660.668406 213.891311 13757.701118 209.081042 13883.928512 C 204.214183 14009.986169 223.625031 14165.295087 286.667843 14315.681645 C 349.767247 14466.124783 456.498616 14611.588982 597.18482 14699.003291 C 737.927616 14786.304442 912.512066 14815.385967 1058.121721 14713.487474 C 1203.674786 14611.588982 1320.083283 14378.710474 1320.083283 14087.612338 C 1320.083283 13796.62736 1203.674786 13447.19644 1237.629622 13219.183712 C 1271.584458 12991.170984 1455.902627 12884.406711 1659.688236 12903.869832 C 1863.473844 12923.276375 2086.670301 13068.797153 2232.166774 13369.57027 C 2377.719838 13670.399967 2445.686102 14126.482002 2654.281979 14490.283948 C 2862.877856 14854.199051 3212.273121 15125.890645 3571.23233 15218.114155 C 3930.248132 15310.337665 4298.997653 15222.866778 4591.688341 15104.107791 C 4884.43562 14985.179068 5101.124066 14834.792509 5171.297394 14637.106039 C 5241.414131 14439.476149 5164.902567 14194.602926 4983.810107 14245.467304 C 4802.661056 14296.501418 4516.874518 14643.329712 4504.990326 15025.293466 C 4493.049542 15407.313798 4755.067694 15824.52617 5060.717811 16003.994253 C 5366.367928 16183.575493 5715.65001 16125.299287 6085.814316 16030.586308 C 6455.865439 15935.81675 6846.798786 15804.384103 7021.439827 15804.384103 C 7196.080868 15804.384103 7154.486193 15935.81675 6959.076111 16001.504784 C 6763.666029 16067.07966 6414.327356 16067.07966 6103.810379 15848.798493 C 5793.293402 15630.517325 5521.598121 15193.785253 5317.869104 14684.40595 C 5114.083495 14175.026647 4978.207559 13592.830376 5021.896115 13185.179828 C 5065.52808 12777.699017 5288.724536 12544.820509 5550.686097 12481.79168 C 5812.70425 12418.706273 6113.544099 12525.413967 6249.363443 12952.414478 C 6385.182788 13379.301831 6356.094812 14126.482002 6540.469572 14684.40595 C 6724.787741 15242.27332 7122.625239 15611.110783 7476.830772 15853.720852 C 7830.979713 16096.217763 8141.49669 16212.713596 8413.191971 16251.470102 C 8684.887252 16290.283187 8917.760837 16251.470102 9097.268737 16159.303171 C 9276.776638 16067.07966 9402.918854 15921.615461 9393.241726 15790.578866 C 9383.508006 15659.598849 9238.011533 15543.103016 8932.304825 15421.911139 C 8626.654708 15300.606105 8160.907538 15174.378711 7826.169444 14820.308326 C 7491.37476 14466.124783 7287.589151 13883.928512 7180.857783 13489.291097 C 7074.126414 13094.710262 7064.449286 12887.688284 6947.984198 12746.976707 C 6831.575701 12606.321709 6608.379245 12531.863954 6448.282192 12528.695539 C 6288.128548 12525.413967 6191.130899 12593.308575 6220.275467 12729.210951 C 6249.363443 12865.000169 6404.593636 13068.797153 6632.317404 13082.376075 C 6860.041172 13095.898418 7160.258515 12919.315856 7374.173983 12965.993399 C 7588.03286 13012.670943 7715.646453 13282.778329 7711.06255 13487.593732 C 7706.535238 13692.295978 7569.867023 13831.76282 7564.604023 14071.317632 C 7559.284432 14310.815865 7685.426648 14650.402067 7879.535129 14844.467491 C 8073.587018 15038.589493 8335.548579 15087.07756 8584.607302 15074.121005 C 8833.666026 15061.22103 9069.821911 14986.819854 9346.327461 15001.417195 C 9622.889601 15015.901378 9939.857997 15119.384078 10103.237351 15302.190312 C 10266.503521 15484.883389 10276.18065 15746.900001 10130.684177 15945.774626 C 9985.131112 16144.70583 9684.291263 16280.608205 9456.284538 16290.283187 C 9228.277813 16300.014748 9073.047621 16183.575493 8917.760837 16067.07966 " stroke="#000000" stroke-width="44.132" stroke-opacity="1" stroke-miterlimit="22.926001"/></g><g clip-path="url(#id3)"><path stroke-linecap="butt" transform="matrix(0.0537331, 0, 0, -0.053745, 178.536824, 1427.03448)" fill="none" stroke-linejoin="miter" d="M 12795.933139 9364.667476 C 12816.288388 8921.312243 12978.258017 8640.835548 13576.702355 8329.251304 C 14175.001299 8017.59438 15209.629557 7674.757226 15677.000627 7141.858772 C 16144.517092 6609.033 16044.776369 5886.073245 15636.50822 5309.566079 C 15228.312768 4732.986233 14511.58989 4303.004338 14237.302902 3919.683764 C 13963.088611 3536.36319 14131.382907 3199.776619 14340.16961 3019.091191 C 14548.883615 2838.333082 14798.235423 2813.403436 15019.526065 2707.434267 C 15240.816707 2601.465098 15433.973486 2414.456407 15580.385889 2308.559919 C 15726.943686 2202.59075 15826.611711 2177.661104 15898.291269 2046.762288 C 15969.970826 1915.863473 16013.589218 1679.068169 16082.142791 1520.114416 C 16150.696364 1361.233344 16244.185117 1280.193822 16269.120298 1121.240069 C 16294.128176 962.286315 16250.36439 725.491012 16238.005845 712.989848 C 16225.501906 700.561366 16244.185117 912.427022 16197.513438 1005.967708 C 16150.696364 1099.435713 16038.524399 1074.506066 15935.730389 1046.451129 C 15832.863681 1018.396191 15739.447625 987.288643 15717.493034 915.552313 C 15695.683838 843.888664 15745.5542 731.741594 15751.806169 641.326199 C 15758.058139 550.983485 15720.691716 482.445127 15702.008505 529.17913 C 15683.252596 575.913132 15683.252596 737.992176 15574.206616 828.33489 C 15465.087939 918.677604 15246.995979 937.356669 15088.079638 1040.200547 C 14929.090599 1143.117106 14829.422573 1330.053115 14879.292935 1432.896993 C 14929.090599 1535.66819 15128.572045 1554.419936 15253.175251 1492.13216 C 15377.923852 1429.771702 15427.721517 1286.371723 15368.545898 1202.279591 C 15309.297582 1118.114778 15141.003287 1093.185131 14966.457021 1127.490651 C 14791.983453 1161.723489 14611.257916 1255.264175 14508.391208 1227.209238 C 14405.597198 1199.1543 14380.734714 1049.57642 14452.268877 943.607251 C 14523.948435 837.638082 14692.315428 775.350306 14807.613377 650.702072 C 14922.911327 526.053839 14985.21293 339.045148 15100.510879 248.702434 C 15215.808829 158.287039 15384.103125 164.537621 15499.401074 195.717849 C 15614.699024 226.898078 15677.000627 282.935272 15649.012159 264.256207 C 15620.878296 245.577143 15502.527059 152.109138 15536.767497 117.803618 C 15571.080632 83.57078 15758.058139 108.500426 15888.913315 177.038785 C 16019.768491 245.577143 16094.574033 357.796894 16100.753305 345.29573 C 16107.077972 332.867247 16044.776369 195.717849 15910.795208 114.678327 C 15776.814047 33.638805 15571.080632 8.78184 15374.797868 46.139969 C 15178.369709 83.57078 14991.464899 183.216685 14785.804181 370.225376 C 14580.143463 557.234067 14355.726836 831.460181 14143.814149 1058.952293 C 13931.901461 1286.371723 13732.492712 1467.129832 13645.183231 1669.692296 C 13558.019144 1872.254761 13582.881628 2096.621582 13719.988773 2236.89627 C 13857.095918 2377.098277 14106.375029 2433.208153 14368.230775 2398.902633 C 14630.013825 2364.669795 14904.228115 2240.021561 15113.014818 2074.817226 C 15321.801521 1909.685572 15465.087939 1703.997816 15455.782682 1688.371361 C 15446.404728 1672.817587 15284.435099 1847.325114 15063.07176 1934.615219 C 14841.926512 2021.832642 14561.387554 2021.832642 14274.669324 2040.511706 C 13988.023792 2059.263452 13695.12629 2096.621582 13427.091271 2292.933464 C 13159.128949 2489.318028 12916.029111 2844.510983 12794.479192 3237.20743 C 12673.001971 3629.831195 12673.001971 4059.885771 12959.574806 4396.472343 C 13246.293036 4732.986233 13819.656799 4976.104799 14159.444072 5343.798918 C 14499.085951 5711.493037 14605.005946 6203.90807 14396.219243 6612.085609 C 14187.505238 7020.33583 13663.939139 7344.421237 13218.304568 7599.968286 C 12772.669996 7855.515335 12404.966952 8042.524026 12115.195434 8550.638196 C 11825.496614 9058.825047 11613.729321 9888.117376 11777.152897 10353.276965 C 11940.721867 10818.509235 12479.481705 10919.463402 12688.195711 10666.896282 C 12896.982414 10414.329161 12775.577889 9808.02271 12795.933139 9364.667476 Z M 12795.933139 9364.667476 " stroke="#000000" stroke-width="56.693001" stroke-opacity="1" stroke-miterlimit="22.926001"/></g><path stroke-linecap="butt" transform="matrix(0.0537331, 0, 0, -0.053745, 178.536824, 1427.03448)" fill="none" stroke-linejoin="miter" d="M 13526.686599 10375.299364 C 13812.168975 10228.919456 14097.724048 10082.466867 14259.184795 9809.839739 C 14420.71824 9537.212611 14458.084663 9138.338264 14263.910121 8748.985152 C 14069.662882 8359.63204 13644.020074 7979.800163 13064.404341 7792.791472 C 12484.788609 7605.855462 11751.199953 7611.742638 11277.795006 7691.183174 C 10804.390058 7770.696392 10591.096121 7923.690288 10349.232138 7889.239406 C 10107.295457 7854.861205 9836.934124 7632.965545 9812.725916 7388.10263 C 9788.445011 7143.385077 10010.389929 6875.70027 10470.41857 6691.889551 C 10930.374513 6508.224195 11628.486877 6408.505608 12158.304945 6508.224195 C 12687.977619 6607.942782 13049.501391 6907.098542 13307.286087 7052.388233 C 13565.216179 7197.677923 13719.407194 7189.101543 13800.392009 7114.312603 C 13881.376823 7039.523663 13889.300831 6898.522162 13787.306491 6659.691786 C 13685.166757 6421.006772 13473.254069 6084.420201 12875.027823 5816.371988 C 12276.728879 5548.396456 11291.898286 5348.959282 10681.095403 5467.356934 C 10070.365218 5585.827266 9833.51735 6022.132425 9814.834138 6302.536439 C 9796.150927 6583.013135 9995.559676 6707.661369 10014.315584 6601.6922 C 10032.998796 6495.795712 9870.883772 6159.209141 9902.070922 5866.303962 C 9933.258073 5573.326102 10157.602002 5324.029635 10631.297739 5124.592462 C 11104.993476 4925.155288 11827.895626 4775.577408 12675.47368 4663.430338 C 13523.197128 4551.210587 14495.523783 4476.421647 15068.814848 4214.624016 C 15642.178611 3952.899066 15816.797573 3504.165425 15835.480784 3155.295733 C 15854.30939 2806.426042 15717.347639 2557.492981 15580.385889 2308.559919 " stroke="#231f20" stroke-width="56.693001" stroke-opacity="1" stroke-miterlimit="22.926001"/></svg>